<svg width="60" height="60" viewBox="0 0 60 60" fill="none" xmlns="http://www.w3.org/2000/svg">
<g clip-path="url(#clip0_241_1518)">
<path d="M7.68164 0H8.39883C8.98008 0.13125 9.42656 0.672656 9.375 1.27969C9.37617 19.2141 9.37383 37.1484 9.37617 55.0828C9.40078 56.0508 9.15938 57.0305 8.625 57.8449C7.85977 59.0625 6.51094 59.8418 5.09063 60H4.28203C3.11602 59.8547 1.9875 59.3297 1.20586 58.4414C0.514453 57.6938 0.126563 56.7129 0 55.7109V7.79648C0.116016 5.75859 0.992578 3.76875 2.46563 2.34844C3.84961 0.969141 5.74102 0.153516 7.68164 0ZM3.67383 4.49414C2.81953 5.52656 2.34492 6.85898 2.34492 8.19844C2.34258 13.9031 2.34375 19.6078 2.34492 25.3113C3.90703 25.3125 5.46797 25.3125 7.03008 25.3113C7.03125 17.6965 7.03242 10.0816 7.03008 2.46563C5.72227 2.73047 4.51641 3.45937 3.67383 4.49414ZM2.34492 27.6562C2.34375 29.2184 2.34375 30.7805 2.34492 32.3426C3.90703 32.3437 5.46914 32.3437 7.03125 32.3426C7.03125 30.7805 7.03125 29.2195 7.03125 27.6574C5.46914 27.6551 3.90703 27.6562 2.34492 27.6562ZM2.34492 34.6887C2.34375 36.2496 2.34375 37.8117 2.34492 39.3738C3.90586 39.375 5.46797 39.375 7.03008 39.375C7.03125 37.8117 7.03125 36.2496 7.03008 34.6875C5.46797 34.6875 3.90586 34.6863 2.34492 34.6887ZM2.34492 41.7188C2.34375 46.2527 2.34258 50.7867 2.34492 55.3207C2.3168 56.5699 3.44063 57.6855 4.68867 57.6551C5.93438 57.6832 7.05586 56.5688 7.02891 55.3207C7.03359 50.7879 7.03008 46.2539 7.03125 41.7199C5.46914 41.7176 3.90703 41.7188 2.34492 41.7188Z" fill="#ce1d49"/>
<path d="M29.7059 0H30.1992C30.4524 0.0855469 30.7008 0.207422 30.886 0.405469C33.9246 3.51328 36.1571 7.40391 37.2914 11.6016C37.8879 13.7742 38.1867 16.0266 38.2008 18.2801C38.2125 26.748 38.1891 35.2148 38.2125 43.6828C40.0301 43.9406 41.7446 44.8383 42.9973 46.1789C44.5887 47.8488 45.4125 50.216 45.2016 52.5141C45.0563 54.2238 44.3496 55.8762 43.2223 57.1687C41.7832 58.848 39.6446 59.8746 37.4403 60H36.5098C34.8199 59.8559 33.1641 59.2359 31.8516 58.1496C31.0969 57.5437 30.4758 56.7879 29.9625 55.9699C29.2957 56.9637 28.5199 57.9035 27.5227 58.582C26.3133 59.4422 24.8543 59.9121 23.3789 60H22.4473C20.3133 59.8324 18.2449 58.8527 16.8305 57.2355C15.5871 55.8457 14.8489 54.0176 14.775 52.1531C14.6719 49.9699 15.4934 47.7621 17.0028 46.1801C18.2555 44.8371 19.9723 43.9488 21.7887 43.6816C21.8086 36.3867 21.791 29.0918 21.7969 21.7969C21.8121 19.3488 21.6996 16.8844 22.0969 14.4574C22.8645 9.4125 25.1836 4.61953 28.6606 0.884766C28.9688 0.546094 29.2805 0.194531 29.7059 0ZM24.1606 17.4527C24.116 19.916 24.1524 22.3805 24.1406 24.8438C24.1184 25.868 24.334 26.9016 24.8203 27.8062C25.7098 29.5102 27.4828 30.7219 29.4 30.9C29.7317 30.9387 30.0774 30.907 30.4008 31.0113C30.8953 31.1801 31.2082 31.7027 31.1719 32.2184C31.1719 38.5887 31.1707 44.959 31.1731 51.3293C31.1684 52.4191 31.3676 53.523 31.8656 54.4992C32.5231 55.8281 33.7266 56.8711 35.134 57.3375C36.6387 57.8566 38.3543 57.7277 39.7594 56.9754C41.1797 56.2301 42.2684 54.8789 42.6821 53.3285C43.1004 51.8074 42.8684 50.1199 42.0434 48.7746C41.0977 47.1879 39.361 46.0898 37.5117 45.9645C37.1379 45.9305 36.7289 45.9703 36.402 45.75C36.0305 45.5238 35.8371 45.082 35.8594 44.6566C35.8594 38.1691 35.8594 31.6816 35.8594 25.1953C35.8699 24.0973 35.5875 22.9945 35.0121 22.057C34.1696 20.6438 32.7047 19.6195 31.0852 19.323C30.661 19.234 30.225 19.2469 29.7961 19.193C29.2512 19.1145 28.8246 18.5988 28.8317 18.0516C28.8188 13.4918 28.841 8.93203 28.8211 4.37344C25.9442 8.09648 24.3364 12.7594 24.1606 17.4527ZM31.1801 4.37227C31.1684 8.56992 31.1625 12.7699 31.1824 16.9676C32.9485 17.209 34.6055 18.0738 35.8547 19.3395C36.0422 14.018 34.4508 8.59805 31.1801 4.37227ZM24.1453 30.818C24.1336 35.4305 24.1442 40.0441 24.1406 44.6566C24.1629 45.082 23.9684 45.5227 23.5981 45.75C23.1668 46.0254 22.6301 45.9082 22.1496 45.9984C19.8457 46.2973 17.8336 48.1031 17.291 50.3637C16.8258 52.132 17.2758 54.0973 18.4395 55.5035C19.5516 56.8828 21.3176 57.7113 23.093 57.6527C24.3621 57.6387 25.6207 57.1758 26.5875 56.3508C28.0442 55.1285 28.8504 53.2207 28.827 51.3305C28.8223 45.2836 28.8422 39.2355 28.8176 33.1887C27.0539 32.9391 25.3957 32.0836 24.1453 30.818Z" fill="#ce1d49"/>
<path d="M47.9918 0H55.5047C55.8399 0.103125 56.175 0.285937 56.3391 0.611719C56.6379 1.12852 56.4481 1.84805 55.9406 2.15742C55.6547 2.35078 55.2973 2.34609 54.9668 2.34727C54.3012 2.34375 53.6356 2.34258 52.9699 2.34492C52.9688 5.07891 52.9676 7.81172 52.9699 10.5457C54.9246 10.5527 56.8805 10.5387 58.8352 10.5516C59.3801 10.5328 59.7996 10.9547 60 11.4258V11.9156C59.8723 12.4113 59.4656 12.8531 58.9324 12.8777C58.1168 12.9129 57.3 12.8777 56.4856 12.8918C56.4832 17.1902 56.4856 21.4887 56.4844 25.7871C56.5231 26.3426 56.1551 26.9016 55.6031 27.0305C54.9375 27.2262 54.1828 26.6977 54.1524 26.0016C54.1184 25.1484 54.1535 24.293 54.1395 23.4387C52.5774 23.4363 51.0164 23.4363 49.4543 23.4387C49.452 27.1102 49.4543 30.7816 49.4531 34.4531C49.4707 36.5895 49.418 38.7316 49.4789 40.8656C50.2231 41.9203 51.0176 42.9422 51.7969 43.9723C52.5059 43.0664 53.1738 42.1313 53.877 41.2219C53.993 41.052 54.1617 40.8891 54.1383 40.6652C54.1512 39.2566 54.1289 37.8469 54.1453 36.4383C54.1301 35.8137 54.6891 35.2605 55.3125 35.2746C55.9348 35.2617 56.4926 35.8148 56.4797 36.4395C56.4938 37.9664 56.4774 39.4945 56.4867 41.0227C56.4961 41.3449 56.4504 41.6824 56.25 41.9461C55.1789 43.4145 54.0469 44.8418 52.9934 46.3219C52.9348 50.175 52.9852 54.034 52.9699 57.8895C52.9488 58.357 53.0379 58.8504 52.8656 59.298C52.7192 59.6684 52.3582 59.8875 51.9938 60H51.5988C51.0633 59.8687 50.6133 59.3988 50.6297 58.827C50.6016 54.6598 50.6625 50.4867 50.6004 46.3219C49.5481 44.8406 48.4172 43.4133 47.3449 41.9461C47.1715 41.7141 47.1024 41.4246 47.1094 41.1387C47.1094 31.7238 47.1106 22.3078 47.1082 12.8918C46.2926 12.8777 45.4758 12.9129 44.6613 12.8777C44.0332 12.8461 43.527 12.2285 43.6008 11.6086C43.6442 11.0273 44.1738 10.5398 44.7586 10.5516C46.7133 10.5387 48.6692 10.5527 50.6238 10.5457C50.6262 7.81172 50.6262 5.07891 50.6238 2.34492C49.8082 2.33086 48.9914 2.36602 48.177 2.33086C47.475 2.29922 46.9453 1.53281 47.1528 0.863672C47.25 0.441797 47.6203 0.172266 47.9918 0ZM49.4543 12.8918C49.4531 15.6258 49.4531 18.3586 49.4543 21.0926C51.0153 21.0938 52.5774 21.0938 54.1395 21.0938C54.1406 18.3598 54.1406 15.6258 54.1406 12.8918C52.5774 12.8906 51.0153 12.8906 49.4543 12.8918Z" fill="#ce1d49"/>
<path d="M29.5711 24.0832C30.3855 23.72 31.3593 24.5344 31.1461 25.3969C31.0218 26.2453 29.8757 26.645 29.2476 26.066C28.5703 25.5457 28.7672 24.361 29.5711 24.0832Z" fill="#ce1d49"/>
<path d="M54.9997 30.0457C55.67 29.8324 56.4293 30.3621 56.4774 31.0594C56.5653 31.759 55.9102 32.4188 55.2118 32.3379C54.6223 32.2957 54.129 31.7578 54.1418 31.1672C54.1383 30.6574 54.5051 30.1734 54.9997 30.0457Z" fill="#ce1d49"/>
<path d="M22.5351 48.3094C24.4195 48.0235 26.3156 49.5399 26.4633 51.4372C26.7047 53.3063 25.1859 55.1567 23.3086 55.2938C21.4078 55.5305 19.5422 53.9438 19.4625 52.0325C19.2973 50.2336 20.741 48.4911 22.5351 48.3094ZM22.6558 50.6708C22.1625 50.7997 21.7945 51.2813 21.798 51.7911C21.7828 52.4192 22.3418 52.9782 22.9687 52.9676C23.6344 52.9817 24.2133 52.3477 24.1336 51.6856C24.0855 50.9883 23.3262 50.4575 22.6558 50.6708Z" fill="#ce1d49"/>
<path d="M36.5976 48.3094C38.2078 48.0773 39.866 49.1308 40.3605 50.6754C40.7601 51.8297 40.4941 53.1808 39.6832 54.0949C38.8769 55.0453 37.5386 55.5035 36.3199 55.2363C34.6886 54.9281 33.4277 53.3367 33.5203 51.6762C33.5426 49.998 34.9312 48.484 36.5976 48.3094ZM36.7183 50.6707C36.225 50.7996 35.857 51.2824 35.8605 51.7922C35.8453 52.4191 36.4043 52.9781 37.0312 52.9676C37.6969 52.9816 38.2758 52.3465 38.1961 51.6855C38.148 50.9871 37.3886 50.4574 36.7183 50.6707Z" fill="#ce1d49"/>
</g>
<defs>
<clipPath id="clip0_241_1518">
<rect width="60" height="60" fill="white"/>
</clipPath>
</defs>
</svg>
