<svg width="60" height="60" viewBox="0 0 60 60" fill="none" xmlns="http://www.w3.org/2000/svg">
<g clip-path="url(#clip0_241_1527)">
<path d="M47.2945 0H47.891C50.9695 0.0363281 54.0117 1.28203 56.2172 3.43125C58.5738 5.66836 59.9637 8.86875 60 12.1172V12.5027C59.9602 15.6645 58.6418 18.7805 56.3953 21.0047C44.993 32.4164 33.5824 43.8188 22.1766 55.2258C21.3316 56.0578 20.5277 56.9414 19.5598 57.634C17.5313 59.1352 15.027 59.959 12.5063 60H12.1125C9.09023 59.9602 6.10195 58.7613 3.90586 56.6824C1.49883 54.4641 0.0632813 51.2508 0 47.9789V47.3965C0.0609375 44.9672 0.844922 42.5578 2.26289 40.582C3.02344 39.4852 4.02539 38.5934 4.95352 37.6453C16.3031 26.298 27.648 14.9484 38.9988 3.60234C41.175 1.40273 44.2043 0.0996094 47.2945 0ZM41.4762 6.09727C35.9988 11.5711 30.5227 17.0473 25.0465 22.5246C25.8832 23.3613 26.7199 24.198 27.5578 25.0336C33.0316 19.5504 38.4949 14.0578 43.9699 8.57578C45.2133 7.31602 47.1164 6.76523 48.8414 7.1625C50.4281 7.5 51.8156 8.62852 52.4824 10.1051C53.1961 11.6379 53.1047 13.5129 52.2422 14.9672C51.8285 15.7008 51.1875 16.2609 50.6051 16.8551C45.4102 22.0641 40.2223 27.2789 35.0215 32.482C35.8219 33.3223 36.6586 34.1273 37.4766 34.9523C42.6223 29.8078 47.7668 24.6621 52.9125 19.5164C53.6332 18.7863 54.4055 18.0914 54.975 17.2301C56.4199 15.1277 56.8523 12.3809 56.1586 9.9293C55.5902 7.86211 54.2215 6.03633 52.4145 4.88789C50.748 3.81328 48.7066 3.35039 46.7379 3.56836C44.7621 3.77227 42.873 4.68633 41.4762 6.09727ZM46.4531 11.0625C45.2121 12.3059 43.9723 13.5516 42.7301 14.7949C43.5563 15.6246 44.3871 16.452 45.2145 17.2816C46.3629 16.1367 47.5031 14.9836 48.6516 13.8375C48.9094 13.5832 49.1812 13.3242 49.3125 12.9773C49.6477 12.2109 49.3371 11.2266 48.6105 10.8082C47.9426 10.3887 47.0039 10.4988 46.4531 11.0625ZM30.0434 27.5215C30.8707 28.35 31.7004 29.1762 32.5266 30.0059C35.932 26.5992 39.3293 23.1832 42.7324 19.7742C41.9133 18.9387 41.0742 18.1207 40.2539 17.2863C36.8437 20.6918 33.45 24.1125 30.0434 27.5215ZM5.96953 41.6063C3.77461 43.8305 2.96484 47.2734 3.89297 50.2523C4.53164 52.3863 6.02812 54.2391 7.96289 55.3371C9.61992 56.2898 11.5957 56.6613 13.4883 56.4035C15.3785 56.1574 17.1727 55.2633 18.5168 53.9121C24.0082 48.4219 29.4973 42.9305 34.9898 37.4414C30.8508 33.2941 26.7047 29.1539 22.5621 25.0102C17.0273 30.5379 11.502 36.075 5.96953 41.6063Z" fill="#ce1d49"/>
<path d="M16.193 3.893C17.0156 3.85785 17.9637 3.62699 18.6715 4.17894C19.3992 4.70394 19.5926 5.80667 19.077 6.54378C18.7348 7.0805 18.0902 7.36996 17.4633 7.33831C14.8758 7.35706 12.3199 8.42464 10.4777 10.2399C8.70704 11.9414 7.5879 14.3016 7.40392 16.752C7.3465 17.311 7.44962 17.9157 7.14962 18.4219C6.76056 19.1625 5.79611 19.5387 5.01446 19.2258C4.37462 19.0032 3.9047 18.3762 3.86134 17.7012C3.80509 14.3719 5.03907 11.045 7.24103 8.54886C9.49571 5.94144 12.7582 4.22582 16.193 3.893Z" fill="#ce1d49"/>
<path d="M16.6488 10.9242C17.2746 10.8492 17.973 10.7484 18.5332 11.1129C19.302 11.5664 19.609 12.641 19.166 13.4227C18.8543 14.0473 18.1523 14.4 17.4668 14.3731C15.8473 14.4059 14.4211 15.8461 14.407 17.4668C14.4328 18.1887 14.0109 18.9176 13.3312 19.1906C12.5625 19.5469 11.5781 19.2199 11.1504 18.4969C10.7344 17.8359 10.9066 17.018 11.0133 16.2949C11.509 13.5504 13.8844 11.2875 16.6488 10.9242Z" fill="#ce1d49"/>
<path d="M47.1644 40.9747C48.1898 40.6231 49.3687 41.4551 49.4144 42.5297C49.4449 43.8364 49.0722 45.15 48.3691 46.2516C47.332 47.9051 45.5402 49.0688 43.6019 49.3172C43.0324 49.3875 42.4078 49.4719 41.8828 49.179C41.148 48.818 40.7519 47.8922 41.0144 47.1141C41.2289 46.3629 41.9883 45.8403 42.7629 45.8649C44.4047 45.8684 45.873 44.427 45.8976 42.7852C45.8578 41.9872 46.384 41.1891 47.1644 40.9747Z" fill="#ce1d49"/>
<path d="M54.1945 40.9746C54.975 40.7179 55.8949 41.1222 56.2535 41.8558C56.5582 42.4242 56.427 43.0886 56.4082 43.7027C56.1621 47.2933 54.4031 50.7351 51.6715 53.0707C49.1766 55.2527 45.8602 56.4668 42.5449 56.407C41.5992 56.3472 40.8234 55.4215 40.943 54.4781C41.0215 53.5828 41.8629 52.855 42.7594 52.8984C45.1055 52.8914 47.4387 52.0429 49.234 50.5312C51.5203 48.6504 52.9231 45.7406 52.9324 42.7758C52.8867 41.98 53.4188 41.189 54.1945 40.9746Z" fill="#ce1d49"/>
</g>
<defs>
<clipPath id="clip0_241_1527">
<rect width="60" height="60" fill="white"/>
</clipPath>
</defs>
</svg>
