<svg width="59" height="60" viewBox="0 0 59 60" fill="none" xmlns="http://www.w3.org/2000/svg">
<g clip-path="url(#clip0_241_1534)">
<path d="M29.1956 0H29.3248C29.9568 0.102662 30.5202 0.420913 31.0973 0.678707C34.7177 2.30304 38.3268 4.03004 42.1861 5.02015C45.4168 5.81977 48.8784 5.85057 52.0646 4.83764C52.5126 4.7076 52.9892 4.52281 53.4531 4.69734C54.1697 4.84563 54.5948 5.57795 54.5902 6.27262C54.5971 14.4479 54.5914 22.6232 54.5925 30.7996C54.6074 36.0091 53.2303 41.2312 50.5789 45.7243C48.299 49.6038 45.1334 52.9665 41.3667 55.4407C37.7702 57.8601 33.6035 59.3726 29.3213 60H29.1453C25.374 59.4103 21.677 58.2023 18.4006 56.2266C13.0842 53.1 8.80658 48.2601 6.34494 42.6137C4.95184 39.3833 4.13587 35.903 3.95416 32.3909C3.90388 31.1749 3.92331 29.9578 3.91988 28.7418C3.92216 21.2498 3.91531 13.7589 3.92216 6.26806C3.91988 5.59278 4.32101 4.87643 5.01241 4.70989C5.55068 4.49658 6.10038 4.74525 6.62036 4.89011C10.1037 5.95665 13.8841 5.77757 17.3514 4.74297C20.9468 3.68897 24.3341 2.0635 27.7431 0.53384C28.2151 0.325095 28.6757 0.0707224 29.1956 0ZM24.1329 5.61559C20.7993 7.0346 17.3343 8.26084 13.715 8.66236C11.5071 8.89962 9.25799 8.77415 7.09806 8.2597C7.10606 15.8521 7.09692 23.4433 7.10263 31.0346C7.11178 33.1791 7.35405 35.327 7.88775 37.4053C9.2957 42.8281 12.4727 47.7741 16.8429 51.292C20.3673 54.1494 24.6518 56.0943 29.1431 56.7935C30.1065 56.7319 31.0539 56.481 31.9898 56.246C36.3725 55.054 40.4524 52.7247 43.6557 49.5034C46.8796 46.338 49.2258 42.3091 50.4669 37.9745C51.1686 35.5346 51.4349 32.9875 51.4121 30.454C51.4121 23.0555 51.4086 15.6582 51.4132 8.2597C49.5527 8.70342 47.6259 8.85741 45.7185 8.74106C42.6832 8.54373 39.7324 7.69278 36.8971 6.63308C34.3018 5.64867 31.7876 4.46692 29.2573 3.3308C27.5545 4.10532 25.854 4.88441 24.1329 5.61559Z" fill="#ce1d49"/>
<path d="M23.1364 16.4361C23.125 15.5965 23.8335 14.8608 24.6758 14.846C27.6105 14.822 30.5464 14.846 33.4824 14.8346C33.9966 14.8231 34.56 14.9292 34.9234 15.3216C35.3109 15.6935 35.3966 16.2593 35.3817 16.7703C35.3646 19.1486 35.4069 21.5281 35.36 23.9053C37.7439 23.8585 40.129 23.9019 42.5141 23.8836C43.018 23.8711 43.5757 23.9532 43.946 24.3285C44.3174 24.6615 44.4454 25.1771 44.4477 25.6585C44.4454 28.5513 44.4454 31.4441 44.4477 34.3368C44.4466 34.8148 44.3209 35.3258 43.9563 35.6612C43.5849 36.0433 43.0215 36.1277 42.5118 36.1163C40.129 36.0981 37.7439 36.1425 35.3612 36.0935C35.4057 38.4718 35.3646 40.8524 35.3817 43.2319C35.3954 43.7384 35.312 44.2984 34.9326 44.668C34.5977 45.0353 34.0812 45.1608 33.6001 45.1642C30.7042 45.1631 27.8083 45.1631 24.9112 45.1642C24.4312 45.1608 23.9158 45.0376 23.581 44.6703C23.2004 44.2984 23.1147 43.7384 23.1307 43.2296C23.1478 40.8513 23.1055 38.4718 23.1513 36.0935C20.7673 36.1414 18.3811 36.0981 15.9949 36.1163C15.4887 36.1277 14.931 36.0433 14.5607 35.6669C14.1916 35.3327 14.0647 34.8171 14.0647 34.3357C14.067 31.4429 14.067 28.549 14.0647 25.6562C14.0658 25.1771 14.1927 24.665 14.5607 24.333C14.9298 23.9555 15.4875 23.8711 15.9926 23.8836C18.3788 23.9019 20.7662 23.8585 23.1513 23.9064C23.1101 21.4174 23.1398 18.925 23.1364 16.4361ZM26.3146 18.0136C26.3146 20.449 26.3134 22.8855 26.3146 25.3209C26.2963 25.7726 26.2026 26.2745 25.8472 26.5893C25.5283 26.9509 25.0209 27.0467 24.5615 27.065C22.1227 27.0638 19.6851 27.065 17.2463 27.065C17.2486 29.0212 17.2486 30.9787 17.2463 32.9349C19.6874 32.9349 22.1273 32.9361 24.5684 32.9349C25.0243 32.952 25.5283 33.0501 25.8449 33.4095C26.2014 33.7254 26.2974 34.2262 26.3146 34.6802C26.3134 37.1155 26.3146 39.5509 26.3146 41.9863C28.2757 41.984 30.2367 41.984 32.1978 41.9863C32.1978 39.5498 32.199 37.1144 32.1978 34.6779C32.2024 34.16 32.3612 33.6068 32.7989 33.2874C33.1726 32.9737 33.6983 32.9292 34.168 32.9338C36.5337 32.9384 38.9005 32.9338 41.2672 32.9349C41.2638 30.9787 41.2638 29.0212 41.2672 27.065C38.8273 27.065 36.3874 27.0638 33.9486 27.065C33.4892 27.0479 32.9841 26.9498 32.6664 26.5893C32.3121 26.2756 32.2138 25.7771 32.1978 25.3266C32.199 22.8889 32.1978 20.4513 32.1978 18.0136C30.2367 18.0159 28.2757 18.0159 26.3146 18.0136Z" fill="#ce1d49"/>
</g>
<defs>
<clipPath id="clip0_241_1534">
<rect width="58.5124" height="60" fill="white"/>
</clipPath>
</defs>
</svg>
