<svg width="60" height="60" viewBox="0 0 60 60" fill="none" xmlns="http://www.w3.org/2000/svg">
<g clip-path="url(#clip0_241_1495)">
<path d="M33.0516 0H33.3375C34.2199 0.0773438 34.9641 0.866016 34.9488 1.75898C34.9523 3.31875 34.9523 4.87969 34.9488 6.43945C34.9559 7.19648 34.4262 7.91836 33.6961 8.12461C32.9145 8.38477 31.9969 7.97813 31.6348 7.2457C31.3957 6.825 31.4344 6.32578 31.4344 5.86055C30.4652 5.83945 29.4457 5.82656 28.568 6.3C26.8922 7.11797 25.9383 9.16289 26.4422 10.9688C27.8742 16.0324 29.332 21.0902 30.7746 26.1516C30.9633 26.7938 31.1262 27.4441 31.3488 28.0758C32.2852 30.6984 34.2961 32.9098 36.8098 34.1027C38.5477 34.9395 40.5152 35.3016 42.4359 35.1023C45.3328 34.8258 48.0738 33.2871 49.8445 30.9809C50.6953 29.884 51.327 28.6219 51.6937 27.2836C53.2301 21.9047 54.7688 16.5281 56.3027 11.1492C56.5172 10.4051 56.5406 9.6 56.325 8.85234C55.9629 7.54805 54.9188 6.45352 53.6215 6.05273C52.8914 5.81133 52.1133 5.86172 51.3574 5.86055C51.3902 6.47695 51.3492 7.16367 50.8898 7.63125C50.2699 8.34258 49.0734 8.39062 48.4008 7.72617C48.0211 7.37461 47.8195 6.85313 47.8406 6.3375C47.8465 4.77422 47.8301 3.21094 47.8477 1.64883C47.8828 0.796875 48.6152 0.0761719 49.4566 0H49.7438C50.3414 0.0714844 50.9098 0.427734 51.1688 0.980859C51.3914 1.39922 51.3586 1.88555 51.3574 2.34375C52.5246 2.31914 53.7164 2.34727 54.8285 2.74336C57.8004 3.70898 59.9648 6.67148 60 9.79453V10.2328C59.9578 10.9043 59.8477 11.5723 59.6543 12.218C58.1027 17.6437 56.557 23.0707 55.002 28.4953C54.0082 31.9277 51.6551 34.9453 48.5531 36.7219C48.4195 36.8039 48.2613 36.8777 48.2145 37.0418C46.5574 40.9523 44.9039 44.8641 43.2434 48.7734C43.0734 49.1719 43.1813 49.6184 43.1543 50.0379C43.1918 52.0031 42.634 53.9777 41.5418 55.6137C39.8602 58.2059 36.8906 59.8758 33.8063 60H33.3246C31.1051 59.9813 28.9031 59.1785 27.2016 57.7535C25.0289 55.9711 23.6941 53.2125 23.6742 50.4C23.6672 46.7648 23.673 43.1297 23.6719 39.4945C23.6648 38.5922 23.7176 37.677 23.5125 36.7898C23.0918 34.834 21.716 33.1125 19.902 32.2699C18.252 31.4824 16.2691 31.4391 14.5852 32.1504C12.3059 33.0809 10.6617 35.3812 10.5621 37.848C10.5281 39.3539 10.5527 40.8598 10.5492 42.3656C12.6059 42.7852 14.4914 43.9699 15.7617 45.641C16.6781 46.8316 17.2805 48.2613 17.4855 49.7496C17.7809 51.7418 17.3461 53.8301 16.2902 55.5445C15.2473 57.2625 13.5996 58.602 11.7023 59.2652C9.86719 59.9156 7.81406 59.9285 5.9707 59.2992C4.03477 58.6465 2.34961 57.2906 1.28555 55.5469C0.503906 54.2801 0.0738281 52.8105 0 51.3258V50.8148C0.0421875 48.7875 0.798047 46.7836 2.13047 45.2531C3.38438 43.7812 5.13867 42.7594 7.03008 42.3656C7.03477 40.9395 7.02656 39.5133 7.03359 38.0871C7.04883 36.3809 7.51055 34.6816 8.3625 33.2027C9.43594 31.3219 11.1328 29.8055 13.1227 28.9477C15.4688 27.9258 18.2086 27.8555 20.6039 28.752C22.6699 29.5125 24.4641 30.9762 25.6348 32.8395C26.6461 34.4332 27.1875 36.3176 27.1852 38.2043C27.1898 42.2285 27.1816 46.2527 27.1898 50.2758C27.1875 52.0148 27.9598 53.7316 29.2594 54.8859C30.5859 56.0906 32.4516 56.6707 34.2281 56.4246C36.2098 56.1773 38.0215 54.8988 38.932 53.1223C39.6246 51.8367 39.7371 50.3203 39.593 48.8965C37.943 44.9648 36.2648 41.0437 34.6102 37.1145C34.5422 36.8426 34.2633 36.7453 34.0512 36.6094C31.0312 34.8176 28.7484 31.841 27.7816 28.466C26.2137 22.9922 24.6504 17.5172 23.0883 12.041C22.4918 9.99609 22.8117 7.70625 23.9637 5.91211C25.0207 4.21992 26.7586 2.96484 28.7109 2.53477C29.6016 2.31914 30.5238 2.34023 31.4344 2.34375C31.4367 1.90547 31.3945 1.44141 31.5949 1.03594C31.848 0.458203 32.4305 0.0679687 33.0516 0ZM39 38.4703C39.7992 40.3547 40.5949 42.2402 41.3965 44.1246C42.1957 42.2402 42.9938 40.3547 43.793 38.4703C42.2086 38.734 40.5832 38.734 39 38.4703ZM7.7918 45.8016C6.11836 46.1121 4.64297 47.2945 3.96563 48.8543C3.28359 50.3742 3.39141 52.2152 4.24688 53.6449C5.04727 55.0184 6.49805 55.9934 8.07656 56.1961C9.54258 56.4035 11.0824 55.9523 12.2027 54.9855C13.4309 53.9531 14.1375 52.3371 14.052 50.734C13.991 49.1836 13.1941 47.6859 11.9496 46.7613C10.7836 45.8695 9.23086 45.518 7.7918 45.8016Z" fill="#ce1d49"/>
<path d="M8.26054 49.3031C9.1453 48.9914 10.1976 49.548 10.459 50.4433C10.7754 51.3316 10.2117 52.391 9.31054 52.6488C8.42694 52.9593 7.38046 52.3968 7.11796 51.5062C6.80155 50.6191 7.36405 49.5656 8.26054 49.3031Z" fill="#ce1d49"/>
</g>
<defs>
<clipPath id="clip0_241_1495">
<rect width="60" height="60" fill="white"/>
</clipPath>
</defs>
</svg>
