<svg width="70" height="70" viewBox="0 0 70 70" fill="none" xmlns="http://www.w3.org/2000/svg">
<g clip-path="url(#clip0_241_1499)">
<path d="M31.731 0H32.0564C32.6621 0.0998047 33.2035 0.596094 33.2418 1.22773C33.2828 1.93457 33.2445 2.64551 33.2582 3.35371C37.141 3.35371 41.0238 3.35508 44.908 3.35234C44.9162 2.66191 44.8888 1.97012 44.9162 1.27832C44.9381 0.589258 45.5533 0.0191406 46.2342 0H46.4283C46.8097 0.0751953 47.183 0.2625 47.4004 0.597461C47.7271 1.06094 47.6273 1.65703 47.6437 2.18887C47.641 14.8613 47.6424 27.5324 47.6424 40.2049C49.164 39.9834 50.7158 40.1885 52.206 40.5262C55.8756 41.3916 59.1363 43.7281 61.2308 46.8508C61.9404 45.7639 61.7299 44.4322 61.7572 43.2086C61.7408 42.5223 61.8215 41.8209 61.6355 41.1523C61.358 40.1146 60.5404 39.2438 59.5273 38.8938C58.8191 38.6189 58.0316 38.7803 57.3193 38.5314C55.9603 38.1117 54.9131 36.8293 54.8051 35.4061C54.7531 34.3643 54.7066 33.2391 55.2781 32.3162C55.8797 31.2662 57.0308 30.5525 58.2435 30.5102C60.9123 30.4432 63.5906 31.366 65.6592 33.0531C67.6717 34.6732 69.1291 36.9783 69.6801 39.5062C69.8742 40.3074 69.9138 41.1346 70 41.9521V45.15C69.8879 46.643 69.6595 48.1455 69.0498 49.525C68.023 51.9846 66.1008 54.0395 63.7424 55.274C63.726 58.2846 62.7758 61.291 60.997 63.7273C58.1957 67.643 53.4379 69.9822 48.6418 70H27.9658C27.3547 69.9057 26.816 69.4053 26.7668 68.7736C26.6588 67.9834 27.367 67.2232 28.1627 67.2684C30.7138 67.2602 33.265 67.2697 35.8176 67.2643C36.0021 66.1555 36.4191 65.0699 37.1369 64.1936C38.1486 62.9398 39.6552 62.166 41.2125 61.8338C39.7154 60.3818 38.7133 58.4213 38.4658 56.3473C38.1814 54.1324 38.7406 51.8246 40.0148 49.9912C41.7074 47.5002 44.6838 45.9197 47.7039 46.0018C48.5638 46.0236 49.201 46.9861 48.9002 47.79C48.7142 48.4012 48.0758 48.7607 47.4564 48.732C45.597 48.7607 43.7814 49.6535 42.607 51.0932C41.3178 52.6354 40.8283 54.7955 41.3177 56.7438C41.851 59.0051 43.6994 60.8877 45.9498 61.4633C47.1447 61.8023 48.397 61.6369 49.6193 61.7039C50.3699 61.7682 50.9441 62.5543 50.791 63.2912C50.6857 63.9666 50.024 64.4643 49.3472 64.4205C47.2076 64.4246 45.0679 64.4232 42.9283 64.4191C41.7635 64.3918 40.5576 64.7377 39.6621 65.502C39.1275 65.9572 38.7967 66.5971 38.6025 67.2629C41.9125 67.2684 45.2238 67.267 48.5338 67.2629C51.2162 67.2574 53.9041 66.4275 56.0765 64.843C58.089 63.391 59.6394 61.3006 60.4092 58.9395C61.2992 56.2488 61.1775 53.2492 60.122 50.6229C59.0953 48.0512 57.1853 45.8404 54.7804 44.4664C52.9334 43.4055 50.8006 42.8285 48.6691 42.8504C44.0234 43.333 39.3545 43.6146 34.6842 43.6912C31.4166 43.7363 27.9535 43.8197 24.9689 42.2816C23.9654 41.7826 23.0918 41.0717 22.147 40.4756C21.4115 40.0121 20.5474 39.7893 19.6834 39.7523C18.2314 39.6922 16.7767 39.766 15.3248 39.7141C14.7738 39.6744 14.4142 39.2123 14.0683 38.8377C13.3574 38.0639 12.6424 37.2941 11.9273 36.523C11.9164 37.152 11.941 37.7822 11.9164 38.4111C11.9123 38.9074 11.6047 39.3723 11.1631 39.5883C10.2758 40.0395 9.36657 40.4482 8.48064 40.9008C8.02946 41.1195 7.75739 41.609 7.76423 42.1053C7.75466 43.5012 6.98083 44.8643 5.76677 45.5615C5.01482 45.9771 4.1945 46.2533 3.43298 46.6484C3.00232 46.8781 2.75622 47.3689 2.774 47.8502C2.77536 48.6678 2.76306 49.484 2.78083 50.3016C2.78357 50.9934 3.40974 51.5949 4.10153 51.5771C5.89939 51.625 7.73142 51.5266 9.48689 52.0023C11.4009 52.4809 13.2617 53.5445 14.309 55.2631C14.9283 56.2324 15.184 57.3877 15.2031 58.5279C15.2168 59.5014 15.8593 60.3395 16.6209 60.8863C17.2361 61.3225 17.9539 61.6902 18.7263 61.6889C19.7791 61.693 20.8318 61.6766 21.8845 61.6916C22.5969 61.6766 23.234 62.3109 23.2312 63.0219C23.2668 63.7602 22.6092 64.4342 21.8695 64.415C17.4015 64.4342 12.9349 64.4137 8.46696 64.4246C7.72185 64.4328 6.92341 64.616 6.38884 65.1711C5.83923 65.7262 5.65329 66.5178 5.53708 67.2643C9.074 67.2738 12.6109 67.252 16.1465 67.2738C16.9107 67.2725 17.5519 68.0244 17.448 68.7791C17.392 69.4504 16.7808 69.9904 16.1123 70H4.02224C3.46716 69.9125 2.95993 69.5023 2.84919 68.9377C2.57575 66.8855 3.03513 64.5723 4.59099 63.1066C5.63142 62.1387 7.07243 61.693 8.47517 61.6889C10.1705 61.6848 11.8644 61.6875 13.5584 61.6875C12.8926 60.7729 12.4701 59.6695 12.4633 58.5307C12.466 57.7186 12.2021 56.9037 11.673 56.283C10.8759 55.3314 9.67693 54.827 8.48884 54.5713C6.91247 54.2199 5.28825 54.3977 3.69001 54.2883C2.22028 54.1598 0.887277 53.1398 0.339034 51.7754C-0.140848 50.6174 0.0970422 49.3404 0.036886 48.1264C-0.035575 46.9027 0.421066 45.6477 1.33161 44.8164C1.94821 44.2135 2.7822 43.9482 3.54509 43.59C3.99216 43.3754 4.5281 43.24 4.80974 42.7957C5.01482 42.5182 5.01618 42.16 5.04489 41.8318C5.09548 40.9063 5.48239 40.008 6.10857 39.3271C6.92751 38.4166 8.14841 38.0803 9.19157 37.5074C9.19568 36.0281 9.19294 34.5488 9.20115 33.0695C9.19294 32.6238 9.40622 32.1795 9.774 31.9238C10.325 31.5137 11.1603 31.6217 11.6019 32.1439C13.0963 33.76 14.5933 35.3732 16.0849 36.9934C18.1795 37.0658 20.3697 36.7473 22.3672 37.5443C23.9066 38.109 25.0592 39.3518 26.5494 40.0107C27.7388 40.5576 29.0472 40.7736 30.342 40.898C30.3433 37.4773 30.342 34.0553 30.342 30.6346C29.6611 30.6195 28.9789 30.6646 28.2994 30.6113C27.639 30.5416 27.1086 29.9195 27.125 29.2578C27.1113 28.0752 27.1263 26.8912 27.1195 25.7072C26.1174 25.5322 25.1549 25.0947 24.4056 24.4016C23.3146 23.424 22.6816 21.9693 22.7008 20.5051C22.7008 16.5375 22.698 12.5713 22.7021 8.60371C22.6994 7.72324 22.9537 6.86191 23.3625 6.08809C22.0636 6.08262 20.7648 6.10039 19.4674 6.08125C18.7277 6.07715 18.092 5.38262 18.1521 4.6457C18.174 3.93203 18.8302 3.32363 19.5453 3.35781C23.2052 3.34961 26.8638 3.35781 30.5224 3.35371C30.532 2.65781 30.5047 1.96055 30.5334 1.26602C30.5607 0.619336 31.1062 0.0916016 31.731 0ZM25.6443 7.64121C25.3763 8.2209 25.4392 8.87578 25.4351 9.49648C26.4646 9.50332 27.4955 9.48828 28.525 9.50332C29.2181 9.50469 29.8347 10.1104 29.8498 10.8035C29.899 11.524 29.2865 12.209 28.5619 12.224C27.5215 12.2432 26.4797 12.2281 25.4379 12.2295C25.4351 15.0391 25.4297 17.8486 25.4406 20.6582C25.4556 21.8859 26.5302 22.9797 27.7593 23.0166C30.3064 23.033 32.8535 23.0166 35.4019 23.0248C36.6256 23.1014 37.8 22.1443 37.9545 20.9248C38.0187 20.1564 37.9668 19.3826 37.9832 18.6129C37.2627 18.6047 36.5422 18.6238 35.8217 18.6061C35.1066 18.5992 34.4914 17.9334 34.5228 17.2225C34.5174 16.5348 35.1148 15.9154 35.7998 15.8895C36.5271 15.8594 37.2558 15.8867 37.9832 15.8771C37.9804 13.4531 37.9886 11.0291 37.9804 8.60508C37.9873 7.29805 36.8457 6.11953 35.5359 6.09355C33.0353 6.08125 30.5334 6.09219 28.0314 6.08945C27.017 6.06348 26.0367 6.70879 25.6443 7.64121ZM40.0558 6.08809C40.466 6.86191 40.7148 7.72461 40.7162 8.60508C40.7203 12.5727 40.7189 16.5416 40.7162 20.5105C40.7271 21.7424 40.2883 22.9715 39.4898 23.9107C38.6873 24.8828 37.5183 25.4898 36.2906 25.7223C36.307 26.8967 36.3002 28.0725 36.2961 29.2469C36.3193 29.9496 35.7219 30.599 35.0191 30.6223C34.3711 30.651 33.7244 30.625 33.0777 30.6346C33.0777 34.0799 33.0763 37.5252 33.0777 40.9705C37.0248 40.9541 40.9705 40.7682 44.9053 40.4605C44.908 29.0035 44.9066 17.5465 44.9066 6.08945C43.2892 6.08809 41.6732 6.08945 40.0558 6.08809ZM29.8552 25.7578C29.8539 26.4701 29.8566 27.1824 29.8539 27.8947C31.0912 27.8988 32.3299 27.9098 33.5685 27.8893C33.5603 27.1797 33.5658 26.4687 33.5644 25.7578C32.3285 25.7564 31.0912 25.7578 29.8552 25.7578ZM57.5299 34.0498C57.5107 34.4586 57.497 34.8729 57.5476 35.2816C57.6543 35.7807 58.1847 36.0254 58.6605 35.9816C61.0914 36.035 63.3609 37.7289 64.1443 40.0244C64.5955 41.2139 64.4779 42.5018 64.4916 43.7459C64.482 44.5744 64.5381 45.4125 64.3685 46.2301C64.1334 47.4455 63.5004 48.5721 62.6076 49.4252C62.9631 50.3467 63.2611 51.29 63.4553 52.2594C65.2654 50.9961 66.5793 49.041 67.0291 46.8781C67.2957 45.7188 67.2136 44.5225 67.226 43.3439C67.2178 42.4771 67.2656 41.6035 67.1303 40.7436C66.8541 38.7994 65.8875 36.9687 64.4547 35.6275C62.8332 34.0854 60.5978 33.198 58.3584 33.2418C57.9345 33.2582 57.5531 33.6246 57.5299 34.0498Z" fill="#ce1d49"/>
<path d="M10.3086 42.6056C11.0633 42.2502 12.0135 42.7929 12.1433 43.6009C12.3211 44.3597 11.7127 45.1595 10.9429 45.2197C10.2361 45.3058 9.53474 44.7453 9.45544 44.0384C9.35974 43.4355 9.75623 42.8326 10.3086 42.6056Z" fill="#ce1d49"/>
<path d="M21.6617 67.3545C22.2783 67.1112 23.0357 67.3996 23.3406 67.9848C23.7193 68.6451 23.4021 69.6145 22.6761 69.8729C22.1197 69.9754 21.4265 69.9699 21.0683 69.4573C20.4832 68.786 20.8332 67.6362 21.6617 67.3545Z" fill="#ce1d49"/>
</g>
<defs>
<clipPath id="clip0_241_1499">
<rect width="70" height="70" fill="white"/>
</clipPath>
</defs>
</svg>
