<svg width="60" height="60" viewBox="0 0 60 60" fill="none" xmlns="http://www.w3.org/2000/svg">
<g clip-path="url(#clip0_241_1504)">
<path d="M13.9441 0H14.2102C14.6391 0.0925781 15.0047 0.469922 14.9941 0.924609C15.0105 1.88086 14.9918 2.83828 15.0023 3.7957C16.1707 3.90352 17.3145 4.22227 18.382 4.70508C18.8766 3.86133 19.3477 3.00469 19.8551 2.17031C20.1375 1.71328 20.8301 1.62422 21.2273 1.98047C21.5648 2.25234 21.6586 2.76914 21.443 3.14414C20.9742 3.9832 20.4809 4.80938 20.0051 5.64492C20.9578 6.32813 21.7969 7.16602 22.4801 8.11992C23.2852 7.6582 24.0879 7.19063 24.893 6.72656C25.1449 6.57188 25.4613 6.50742 25.7449 6.61875C26.2148 6.77578 26.4879 7.3418 26.3121 7.80703C26.2184 8.11172 25.9406 8.2957 25.6781 8.44336C24.9223 8.87344 24.1723 9.31289 23.4176 9.74414C23.9039 10.8105 24.2191 11.9543 24.3281 13.1227C25.2844 13.1332 26.2418 13.1145 27.1992 13.1297C27.6949 13.1191 28.132 13.5656 28.1227 14.059C28.1367 14.5559 27.6937 15.0059 27.1957 14.9953C26.2383 15.0129 25.2809 14.9871 24.3246 15.007C24.2215 16.173 23.9004 17.3145 23.4176 18.3809C24.2238 18.8438 25.0301 19.3078 25.834 19.7754C26.1023 19.9242 26.3203 20.1832 26.3543 20.4973C26.4363 20.9871 26.0578 21.4875 25.568 21.5496C25.3008 21.6 25.043 21.491 24.8191 21.3574C24.0398 20.9051 23.2605 20.4539 22.4789 20.0051C21.7969 20.9578 20.9578 21.7945 20.0062 22.4789C20.4797 23.3098 20.9672 24.1336 21.4359 24.9668C21.6937 25.3934 21.5297 25.9992 21.0937 26.2383C20.6684 26.4984 20.059 26.3391 19.8187 25.9008C19.3324 25.0793 18.8625 24.2461 18.382 23.4199C17.3133 23.9004 16.1719 24.2203 15.0035 24.3281C14.9906 25.2832 15.0105 26.2371 14.9953 27.1922C15.0082 27.6926 14.5582 28.1367 14.059 28.1238C13.5645 28.1332 13.1168 27.6938 13.1297 27.1969C13.1168 26.2418 13.1297 25.2855 13.125 24.3305C11.9578 24.2156 10.8117 23.9098 9.74766 23.4164C9.26367 24.2391 8.79844 25.0723 8.31094 25.8926C8.06016 26.359 7.3957 26.5125 6.96797 26.1984C6.57422 25.9406 6.44297 25.3699 6.68906 24.968C7.15664 24.1336 7.64531 23.3109 8.11875 22.4801C7.16602 21.7969 6.3293 20.9578 5.64492 20.0063C4.81406 20.482 3.99023 20.9707 3.15469 21.4395C2.72227 21.6984 2.10937 21.525 1.87852 21.0785C1.62422 20.6496 1.79648 20.0438 2.23711 19.8129C3.05625 19.3277 3.88711 18.8637 4.70742 18.3809C4.21992 17.3145 3.90469 16.1707 3.79687 15.0035C2.83828 14.9918 1.87852 15.0105 0.919922 14.9953C0.460547 15.0023 0.0714844 14.625 0 14.182V13.9148C0.09375 13.4836 0.472266 13.1191 0.926953 13.1309C1.88437 13.1121 2.84297 13.1379 3.80039 13.118C3.90352 11.952 4.22109 10.8094 4.70742 9.74649C3.86719 9.24609 3.00703 8.77734 2.17031 8.26992C1.62773 7.94063 1.63359 7.06524 2.1668 6.72891C2.48086 6.50273 2.9168 6.52383 3.23555 6.73008C4.04062 7.19063 4.84102 7.65938 5.64492 8.1211C6.32812 7.16719 7.16602 6.32813 8.11992 5.64609C7.64531 4.81406 7.15547 3.99141 6.68789 3.15469C6.39023 2.67539 6.65391 1.98516 7.18711 1.81406C7.60078 1.65703 8.09648 1.84688 8.30977 2.23125C8.79844 3.05156 9.2625 3.88711 9.74883 4.70977C10.8105 4.21523 11.9555 3.90586 13.1215 3.79805C13.1332 2.83945 13.1145 1.88203 13.1297 0.924609C13.1191 0.462891 13.4988 0.0714844 13.9441 0ZM12.8402 5.71406C9.76758 6.13242 7.05234 8.40117 6.07617 11.3414C5.39648 13.3172 5.48906 15.5473 6.33984 17.4563C7.07344 19.1285 8.36836 20.5465 9.96445 21.4348C12.8484 23.0871 16.6969 22.7813 19.2785 20.6859C20.8746 19.4355 21.9973 17.5922 22.357 15.5953C22.698 13.7777 22.418 11.85 21.5648 10.2082C20.7914 8.70352 19.5551 7.44024 18.0645 6.6375C16.4848 5.77383 14.6215 5.45391 12.8402 5.71406Z" fill="#ce1d49"/>
<path d="M44.3004 0H44.7973C45.3012 0.0714844 45.791 0.247266 46.2059 0.547266C47.7164 1.60781 49.2305 2.66367 50.741 3.72539C51.607 4.31367 52.0852 5.41055 51.9223 6.44531C51.7723 7.55273 50.8992 8.51719 49.8094 8.76797C49.0301 8.9707 48.1899 8.78906 47.5231 8.34961C47.168 8.85703 46.8129 9.36445 46.4578 9.87305C47.6274 10.6805 48.0153 12.402 47.2559 13.6137C46.602 14.6074 45.8848 15.5578 45.225 16.5469C45.8145 17.1867 46.3078 17.9133 46.6348 18.7242C49.5598 20.1551 52.1309 22.3219 53.966 25.0195C56.6438 28.8879 57.7594 33.7875 57.0528 38.4375C56.5254 42.0035 54.8918 45.3738 52.5047 48.0656C53.9578 49.0969 54.9797 50.7234 55.234 52.4918C56.2934 52.4953 57.3574 52.8258 58.1906 53.4902C59.2992 54.3469 59.9801 55.7168 60 57.1184V59.2008C59.9145 59.6191 59.5688 59.952 59.1399 60H4.60314C4.14142 59.9449 3.74298 59.5465 3.7547 59.0707C3.74416 58.4039 3.74767 57.7371 3.7547 57.0715C3.77697 55.684 4.46603 54.334 5.56408 53.4891C6.39611 52.8281 7.45783 52.4953 8.51486 52.4906C8.7258 51.0504 9.42658 49.6875 10.486 48.6879C11.6567 47.5617 13.2598 46.8973 14.8852 46.8785C15.8602 46.8691 16.8363 46.8785 17.8125 46.875C17.8125 44.9684 17.8137 43.0617 17.8113 41.1563C15.6551 40.7367 13.9559 38.652 14.0742 36.4441C14.1176 35.9402 14.618 35.5723 15.1102 35.625C21.3258 35.6285 27.5426 35.6203 33.757 35.6285C34.2117 35.6156 34.6336 35.9883 34.6781 36.4406C34.7953 38.6496 33.1008 40.7402 30.941 41.1563C30.9399 43.0629 30.941 44.9684 30.9399 46.875C34.9231 46.8762 38.9063 46.8727 42.8883 46.8762C43.0289 46.8844 43.1637 46.8598 43.2926 46.8047C46.2363 45.5391 48.6481 43.0828 49.8328 40.1027C50.8278 37.6523 50.9649 34.8715 50.2324 32.3332C49.3922 29.3402 47.3602 26.7082 44.6813 25.1332C43.0266 26.3789 40.684 26.6016 38.8348 25.6605C38.0051 26.8406 37.1836 28.0277 36.3492 29.2055C35.686 30.1348 34.4332 30.5379 33.3399 30.2449C32.761 31.0535 32.2031 31.8762 31.6242 32.6848C31.3383 33.1148 30.6949 33.2098 30.2906 32.8922C28.7695 31.8246 27.2438 30.7641 25.725 29.693C25.3113 29.4234 25.1836 28.8129 25.4719 28.4074C26.0344 27.5777 26.625 26.7668 27.191 25.9383C26.5336 24.9996 26.4902 23.6613 27.1629 22.7191C30.7324 17.6156 34.3078 12.5156 37.8797 7.41328C38.2137 6.91523 38.6988 6.5168 39.266 6.31523C40.1168 5.99062 41.1 6.14062 41.8488 6.64336C42.2063 6.13945 42.5531 5.62969 42.9164 5.13047C41.986 4.44961 41.4938 3.20625 41.8172 2.08359C42.1043 0.95625 43.1461 0.0996094 44.3004 0ZM44.2184 1.93008C43.5516 2.13281 43.3758 3.11484 43.936 3.52969C45.4653 4.6207 47.0121 5.68945 48.5485 6.76992C48.9363 7.08516 49.561 7.02656 49.8668 6.62695C50.202 6.2332 50.1176 5.57578 49.6899 5.28398C48.1758 4.21406 46.6535 3.15469 45.136 2.09063C44.8781 1.89492 44.5266 1.81055 44.2184 1.93008ZM44.4539 6.19336C44.0977 6.7043 43.7391 7.21406 43.3817 7.725C43.8832 8.07656 44.3789 8.43984 44.8899 8.77734C45.3024 8.33672 45.6164 7.76133 45.9903 7.26797C45.4781 6.90938 44.9672 6.54844 44.4539 6.19336ZM39.4172 8.4832C35.8606 13.5633 32.3028 18.6434 28.7461 23.7246C28.4098 24.1324 28.5012 24.798 28.9488 25.0863C30.457 26.1527 31.9758 27.2062 33.4875 28.2691C33.8988 28.6102 34.5715 28.5152 34.8621 28.0629C35.6824 26.898 36.4957 25.7297 37.3137 24.5637C35.9801 23.2137 35.3988 21.1746 35.8547 19.3289C36.266 17.5301 37.6313 15.9949 39.3598 15.3586C40.7356 14.8324 42.3106 14.9004 43.6442 15.5168C44.3098 14.5711 44.9789 13.6277 45.6317 12.6727C45.9317 12.2238 45.7289 11.5898 45.2695 11.3379C43.7731 10.2926 42.2824 9.24023 40.7824 8.20078C40.3535 7.86914 39.6856 8.01914 39.4172 8.4832ZM40.5961 16.9477C39.743 17.1141 38.9567 17.5945 38.4106 18.2695C37.3055 19.5844 37.3055 21.6633 38.4106 22.9781C39.4629 24.3281 41.4856 24.7734 43.0031 23.9742C44.6285 23.1961 45.4863 21.157 44.884 19.4543C44.3438 17.7 42.3938 16.5504 40.5961 16.9477ZM46.9324 21.0094C46.861 21.9809 46.541 22.9289 46.0055 23.7434C47.686 24.8227 49.1508 26.243 50.2418 27.9188C51.832 30.3188 52.6582 33.2156 52.5621 36.0949C52.4543 40.309 50.2653 44.3648 46.8938 46.8727C48.184 46.8961 49.5094 46.766 50.7528 47.1926C52.0442 45.8203 53.1199 44.2418 53.9004 42.525C55.841 38.318 55.8586 33.3047 54.0469 29.0508C52.6348 25.6898 50.0942 22.8211 46.9324 21.0094ZM28.6336 27.1559C28.2727 27.668 27.9152 28.1801 27.5567 28.6934C28.5914 29.4 29.5934 30.157 30.6492 30.8297C30.9856 30.3129 31.3524 29.8172 31.7016 29.3086C30.6809 28.5891 29.6543 27.8766 28.6336 27.1559ZM16.0945 37.5012C16.4871 38.5934 17.5852 39.3902 18.7524 39.3738C22.5047 39.375 26.2559 39.3762 30.007 39.3738C31.1719 39.3867 32.2606 38.5887 32.6531 37.5012C27.1336 37.4988 21.6141 37.5 16.0945 37.5012ZM19.6875 41.25C19.6863 43.125 19.6863 45 19.6875 46.875C22.8117 46.875 25.9371 46.875 29.0613 46.875C29.0613 45 29.0613 43.125 29.0613 41.25C25.9371 41.25 22.8117 41.25 19.6875 41.25ZM13.4965 48.9984C11.9438 49.5141 10.7274 50.8957 10.4063 52.4988C24.7184 52.5012 39.0317 52.5 53.3449 52.4988C52.9418 50.4199 50.9988 48.7699 48.8742 48.7547C37.7754 48.7441 26.6778 48.7535 15.5789 48.75C14.8781 48.7359 14.1633 48.7594 13.4965 48.9984ZM5.81134 56.1832C5.55939 56.7996 5.63673 57.4758 5.62502 58.125C23.1246 58.125 40.6254 58.125 58.125 58.125C58.1156 57.45 58.1918 56.741 57.9071 56.107C57.491 55.0793 56.4246 54.3621 55.3149 54.3762C39.6891 54.3738 24.0621 54.3738 8.43634 54.3762C7.29845 54.3609 6.20627 55.118 5.81134 56.1832Z" fill="#ce1d49"/>
<path d="M10.6078 9.45005C11.5078 9.23442 12.5074 9.49692 13.1742 10.1415C13.8961 10.8083 14.2195 11.8688 13.9875 12.8251C13.7379 13.9407 12.7512 14.8418 11.6144 14.9731C10.6219 15.1161 9.58123 14.6661 8.99061 13.8586C8.42225 13.1063 8.28162 12.0598 8.62498 11.1821C8.94725 10.3243 9.716 9.65513 10.6078 9.45005ZM10.9418 11.304C10.2726 11.5032 10.0957 12.4805 10.6488 12.9036C11.1363 13.35 12.0152 13.0688 12.1547 12.4231C12.3703 11.7376 11.6086 11.0321 10.9418 11.304Z" fill="#ce1d49"/>
<path d="M18.4359 10.3687C19.1027 10.0921 19.868 10.7917 19.6559 11.4796C19.5199 12.1265 18.6445 12.4124 18.1535 11.9706C17.5969 11.5523 17.7668 10.5703 18.4359 10.3687Z" fill="#ce1d49"/>
<path d="M18.443 15.0528C18.9094 14.8758 19.4777 15.1536 19.6324 15.6258C19.7684 15.9844 19.6394 16.4004 19.3594 16.6536C18.75 17.2606 18.1465 17.8746 17.5324 18.477C17.1867 18.8356 16.5586 18.8344 16.2141 18.4746C15.8519 18.1325 15.8484 17.4985 16.2117 17.1551C16.7742 16.5821 17.3496 16.0207 17.9133 15.4477C18.0691 15.2918 18.2262 15.1219 18.443 15.0528Z" fill="#ce1d49"/>
<path d="M12.8156 18.8039C13.4812 18.532 14.243 19.2328 14.0309 19.9184C13.8949 20.5617 13.0254 20.8488 12.5344 20.4117C11.9707 19.9945 12.1406 19.0043 12.8156 18.8039Z" fill="#ce1d49"/>
<path d="M40.9535 19.7649C41.5781 19.4614 42.3691 20.0497 42.2531 20.7352C42.2027 21.4395 41.2699 21.8204 40.7414 21.3551C40.1941 20.9555 40.3195 20.0075 40.9535 19.7649Z" fill="#ce1d49"/>
</g>
<defs>
<clipPath id="clip0_241_1504">
<rect width="60" height="60" fill="white"/>
</clipPath>
</defs>
</svg>
