<svg width="60" height="60" viewBox="0 0 60 60" fill="none" xmlns="http://www.w3.org/2000/svg">
<path d="M36.777 0H37.5328C41.7422 0.0761719 45.9281 1.32305 49.4625 3.61641C54.5789 6.87539 58.3008 12.2473 59.5148 18.1945C59.8324 19.7062 59.9754 21.2508 60 22.7941V22.9242C59.9777 27.5496 58.5316 32.1598 55.8598 35.9391C53.4141 39.4395 49.9699 42.232 46.0371 43.8961C40.5 46.2633 34.0172 46.3008 28.4578 43.9816C27.3117 43.5141 26.2137 42.9352 25.1531 42.2977C24.3645 43.091 23.5711 43.8797 22.7812 44.6719C23.3121 45.2133 23.8617 45.7371 24.3855 46.2855C25.0031 46.9418 24.9727 48.0668 24.3305 48.6961C23.7047 49.3477 22.5727 49.3852 21.9105 48.7652C21.3621 48.2402 20.8383 47.6895 20.2957 47.1586C16.5281 50.9215 12.7676 54.6902 8.99883 58.452C8.05781 59.4 6.75117 59.9555 5.41758 60H5.11172C3.7582 59.9484 2.42695 59.3754 1.48945 58.3934C0.571875 57.4629 0.0433594 56.1797 0 54.8766V54.5566C0.046875 53.2324 0.6 51.9352 1.54219 51C5.30391 47.2301 9.07383 43.4684 12.8379 39.7008C12.307 39.1605 11.7598 38.6355 11.2348 38.0906C10.6125 37.4309 10.6441 36.2965 11.2957 35.6672C11.925 35.0203 13.0559 34.9922 13.7133 35.6133C14.2605 36.1359 14.7844 36.6832 15.3234 37.2141C16.1156 36.4254 16.9043 35.6309 17.6988 34.8422C16.4695 32.8371 15.5332 30.6492 14.9684 28.3641C13.8188 23.7598 14.1492 18.7969 15.9211 14.393C17.6719 9.98906 20.8395 6.17109 24.8285 3.61641C28.3711 1.32656 32.5617 0.075 36.777 0ZM35.2207 3.61406C31.5937 3.97148 28.0816 5.38711 25.2211 7.64531C21.8648 10.2703 19.4086 14.0273 18.3867 18.1664C17.4152 22.0406 17.6813 26.2172 19.1566 29.9309C20.632 33.6891 23.325 36.9527 26.7258 39.1254C29.4141 40.8609 32.543 41.9004 35.7328 42.1301C38.9379 42.368 42.2016 41.7961 45.1254 40.4578C47.4867 39.3855 49.6266 37.8281 51.3797 35.9168C54.3609 32.6906 56.1891 28.4227 56.4398 24.0352C56.6754 20.318 55.8047 16.5375 53.9508 13.3055C52.0816 10.0172 49.2305 7.29609 45.852 5.59219C42.5953 3.93047 38.857 3.24961 35.2207 3.61406ZM17.8102 39.6984C18.6363 40.5305 19.4672 41.3566 20.2957 42.1863C20.959 41.523 21.6246 40.8598 22.2867 40.1941C21.3961 39.4301 20.5699 38.5957 19.8 37.7121C19.1367 38.3742 18.477 39.0398 17.8102 39.6984ZM4.02656 53.4855C3.51328 53.9918 3.36914 54.825 3.68672 55.473C4.02539 56.2547 4.99453 56.6684 5.79727 56.3965C6.29297 56.257 6.6293 55.8504 6.97969 55.5023C10.5902 51.8918 14.1996 48.2836 17.809 44.673C16.9816 43.8434 16.1531 43.0137 15.3223 42.1875C11.5582 45.9551 7.7918 49.7191 4.02656 53.4855Z" fill="#ce1d49"/>
<path d="M35.7023 10.6512C38.6414 10.2176 41.6097 11.1961 44.0613 12.7828C47.3132 14.8922 49.9383 17.8418 52.1179 21.0188C52.4672 21.5906 52.9758 22.1403 52.9629 22.8528C52.9793 23.5043 52.5363 24.0199 52.2105 24.5426C50.489 27.0985 48.464 29.4715 46.0851 31.4403C43.8633 33.2684 41.2289 34.7531 38.3285 35.0824C35.7656 35.3942 33.1793 34.6383 30.9703 33.3645C28.8644 32.1574 27.0246 30.5367 25.3875 28.7567C23.9765 27.2098 22.6851 25.5492 21.5859 23.7668C21.205 23.168 21.2601 22.3617 21.6703 21.7934C23.5863 18.8004 25.923 16.0406 28.7273 13.8434C30.764 12.2695 33.1265 11.011 35.7023 10.6512ZM30.1195 17.243C28.2222 18.8695 26.5968 20.7949 25.1812 22.8492C26.7457 25.1063 28.5468 27.2262 30.6937 28.9488C32.3812 30.2953 34.364 31.4203 36.5531 31.6125C38.632 31.7965 40.6523 30.9633 42.3562 29.8348C45.0691 28.016 47.2558 25.5176 49.1109 22.8516C47.2886 20.2383 45.1605 17.782 42.5273 15.9586C40.7191 14.7281 38.5359 13.8363 36.3117 14.1141C33.9597 14.4106 31.8914 15.7395 30.1195 17.243Z" fill="#ce1d49"/>
<path d="M36.1512 17.6755C37.3922 17.4376 38.7211 17.6532 39.8074 18.3047C41.1832 19.1028 42.1582 20.5524 42.3644 22.1309C42.5613 23.5161 42.1734 24.9727 41.3098 26.0743C40.3125 27.3821 38.6754 28.1684 37.0312 28.1192C35.4094 28.0934 33.8308 27.2637 32.8851 25.9477C31.9207 24.6481 31.6242 22.8891 32.0953 21.3422C32.6297 19.493 34.2574 18.0235 36.1512 17.6755ZM36.6152 21.1794C35.7223 21.4419 35.1586 22.4895 35.4715 23.3755C35.734 24.2708 36.7863 24.838 37.6734 24.5227C38.5687 24.2602 39.1289 23.2079 38.816 22.3219C38.5547 21.4255 37.5012 20.8653 36.6152 21.1794Z" fill="#ce1d49"/>
</svg>
