<svg width="60" height="60" viewBox="0 0 60 60" fill="none" xmlns="http://www.w3.org/2000/svg">
<g clip-path="url(#clip0_241_1513)">
<path d="M23.4855 0H23.9285C25.2984 0.125391 26.5687 0.798047 27.5402 1.75547C28.725 2.90273 29.5676 4.35937 30.191 5.87578C31.0184 7.91719 31.4625 10.1074 31.5469 12.3059C31.5598 13.0148 31.6266 13.7309 31.4941 14.4328C31.2398 15.975 30.3293 17.3871 29.0402 18.2684C29.168 19.1789 29.2992 20.0895 29.4293 21C35.4797 21.0035 41.5312 20.993 47.5816 21.0047C49.1191 21.0047 50.4855 22.3664 50.4949 23.9039C50.5043 29.9613 50.5031 36.0187 50.4949 42.0762C50.4914 43.5305 49.2773 44.8523 47.8289 44.9777C46.8328 45.0293 45.8355 44.9848 44.8394 45C45.0855 45.9598 45.2754 46.9324 45.4125 47.9133C45.4488 48.2285 45.6211 48.5309 45.9094 48.6797C46.2996 48.9129 46.7602 48.75 47.1715 48.675C49.343 48.2086 51.4922 47.2863 53.0543 45.6656C54.3949 44.2969 55.1789 42.4488 55.4016 40.5586C55.5152 39.9316 55.4344 39.2859 55.5562 38.6637C55.7789 37.875 56.9918 37.7531 57.3598 38.4902C58.5656 40.957 59.2758 43.6641 59.4633 46.4039C59.6121 47.9941 59.1914 49.5914 58.493 51.0117C57.4512 53.1223 55.7203 54.859 53.6789 56.0156C51.3773 57.334 48.7184 57.9117 46.0852 57.9938C44.9297 59.1996 43.3066 59.9238 41.6391 60H13.4344C12.9832 59.9215 12.5848 59.5418 12.5707 59.0695C12.5473 58.3266 12.7359 57.5789 13.1016 56.932C13.834 55.6406 15.1535 54.8156 16.5 54.2766C16.5 50.6484 16.5 47.0215 16.5 43.3934C13.4812 39.9539 12.0176 35.2031 12.6434 30.6609C12.9223 28.2176 13.616 25.8211 14.6871 23.6074C14.8734 23.2324 15.0598 22.8586 15.2309 22.4777C12.5109 21.5648 9.65155 21.0562 6.78163 21.0094C6.59413 21.0035 6.40546 20.9918 6.22499 20.9379C4.5539 20.3953 3.04687 19.309 2.08476 17.8289C0.931632 16.0652 0.468742 13.9172 0.507414 11.8289C0.494523 11.1727 0.821476 10.5223 1.36288 10.1508C1.72382 9.89297 2.16796 9.81211 2.58866 9.70898C4.06523 9.33867 5.54413 8.97187 7.02187 8.60039C7.56913 8.45977 8.14452 8.3625 8.63437 8.06133C9.0457 7.81992 9.38554 7.46953 9.64687 7.07227C10.4133 5.925 11.1738 4.77422 11.9426 3.62812C12.5461 2.72461 13.4473 2.025 14.4773 1.6793C17.393 0.739453 20.4293 0.188672 23.4855 0ZM15.1207 3.56953C14.5113 3.77227 13.9769 4.18477 13.6184 4.71563C12.8168 5.90859 12.0281 7.10859 11.2242 8.29922C10.5715 9.26836 9.5707 9.99375 8.4457 10.3055C7.79882 10.4813 7.14726 10.6359 6.49804 10.8023C6.4957 11.5758 6.51093 12.3492 6.49218 13.1227C6.45702 14.0285 5.72226 14.8395 4.82694 14.9707C4.1953 15.0352 3.5578 14.9824 2.92382 15.0023C3.45702 16.8492 4.92773 18.4277 6.77577 18.9949C9.91171 19.0676 13.0465 19.6031 16.0019 20.6637C16.8105 20.9836 17.3426 21.8848 17.2137 22.7484C17.1422 23.25 16.8691 23.6906 16.657 24.143C15.2766 26.8559 14.5324 29.891 14.5031 32.9344C14.557 36.3293 15.8777 39.6844 18.1418 42.2145C18.3785 42.4512 18.5262 42.7711 18.5004 43.1109C18.498 47.0637 18.5027 51.0164 18.498 54.968C18.5133 55.3945 18.232 55.8129 17.8219 55.9406C16.6559 56.3098 15.4289 56.8863 14.8031 57.9973C16.8258 58.0031 18.8484 57.9984 20.8699 57.9996C21.7687 56.1562 23.5359 54.7699 25.5445 54.3492C24.3973 53.1551 23.666 51.5684 23.5254 49.916C23.4 48.1699 23.6801 46.3898 24.382 44.782C23.2605 44.3273 22.4742 43.1719 22.5023 41.9555C22.4977 35.9777 22.5 29.9988 22.5012 24.0211C22.4719 22.7297 23.3777 21.4957 24.6164 21.1336C25.5246 20.884 26.4797 21.0469 27.4078 20.9988C27.3141 20.3426 27.2203 19.6852 27.1266 19.0277C25.5258 19.3277 23.8371 19.1777 22.3301 18.5508C21.0727 18.0551 20.359 16.6652 20.4996 15.348C20.5031 13.2387 20.4961 11.1281 20.5031 9.01758C20.475 8.45039 21.007 7.94766 21.5707 8.00508C22.0852 8.02852 22.5176 8.50547 22.4976 9.01992C22.5047 11.2488 22.4976 13.4777 22.5 15.7066C22.4742 16.0957 22.6769 16.4918 23.0262 16.6734C24.1324 17.2102 25.4262 17.3484 26.6226 17.0672C27.2836 16.8926 27.9891 16.6781 28.4566 16.1473C29.2652 15.327 29.666 14.1469 29.5641 13.0031C29.5406 10.609 29.0894 8.19844 28.0781 6.02109C27.5355 4.88086 26.8453 3.77695 25.8738 2.95195C25.1988 2.38008 24.3363 1.95234 23.4305 2.00977C20.6109 2.18789 17.8125 2.70937 15.1207 3.56953ZM2.50663 11.7973C2.49726 12.1969 2.51015 12.5965 2.53359 12.9961C3.18984 13.0043 3.84491 13.0008 4.50116 12.9973C4.49882 12.4324 4.50116 11.8664 4.49999 11.3004C3.83437 11.4633 3.1746 11.6449 2.50663 11.7973ZM25.3512 23.0145C24.818 23.0754 24.4441 23.6121 24.4992 24.1324C24.5016 30.0762 24.4969 36.0211 24.5016 41.9648C24.4699 42.5273 24.9773 43.0301 25.5387 42.9984C32.8465 43.0008 40.1555 43.002 47.4633 42.9984C48.0269 43.0301 48.532 42.5191 48.498 41.9566C48.5027 36.0152 48.498 30.0738 48.5004 24.1324C48.5285 23.7398 48.3492 23.3273 47.9953 23.134C47.7293 22.9699 47.407 23.0027 47.1094 22.998C39.8566 23.0121 32.6027 22.9793 25.3512 23.0145ZM53.4891 47.966C51.5473 49.4895 49.1684 50.3941 46.7449 50.7844C45.2133 51.0035 43.6418 49.8387 43.4496 48.2953C43.2914 47.1844 43.0687 46.0816 42.7687 45C37.35 45 31.9324 44.9977 26.5148 45.0012C25.6324 46.6734 25.2609 48.6562 25.6652 50.5172C25.9734 51.9785 26.9742 53.3016 28.3629 53.8863C28.6641 54.0234 29.0273 54.0715 29.2488 54.341C29.6344 54.757 29.5535 55.4895 29.0824 55.8094C28.7062 56.0883 28.2117 55.9734 27.7781 56.0238C26.0988 56.1152 24.3293 56.666 23.2207 57.9984C27.6269 58.0008 32.0344 57.9996 36.4406 57.9996C37.2562 58.0301 38.0531 57.5121 38.3519 56.7516C38.5816 56.2687 38.3707 55.616 38.843 55.248C39.3703 54.7418 40.35 55.0688 40.4742 55.7859C40.5551 56.5559 40.3137 57.3293 39.9457 57.9996C41.0309 57.9973 42.1676 58.0898 43.1812 57.6187C43.7519 57.3363 44.4199 57.0434 44.6871 56.4234C45.068 55.8422 45.8332 56.0344 46.418 55.9734C49.7262 55.8316 53.1152 54.6012 55.3453 52.0734C56.6754 50.5617 57.6316 48.5801 57.4793 46.527C57.4301 45.3398 57.225 44.1645 56.9133 43.0207C56.3004 44.9637 55.0922 46.7074 53.4891 47.966Z" fill="#ce1d49"/>
<path d="M30.7851 25.398C31.1074 24.9925 31.7601 24.9164 32.1586 25.2527C34.868 27.682 37.2762 30.4465 39.3281 33.4511C40.6945 35.4082 41.8476 37.5433 42.4863 39.8531C42.5871 40.3968 42.1476 40.9453 41.6027 40.9945C41.1105 41.0554 40.6324 40.7004 40.5199 40.2234C40.1953 39.164 39.7676 38.1375 39.2484 37.1589C37.3887 38.891 35.1492 40.2269 32.7176 40.9746C32.1058 41.1422 31.4531 40.5902 31.5012 39.9621C31.5094 39.5297 31.8316 39.1488 32.2418 39.0316C34.4894 38.3039 36.5566 37.0336 38.2254 35.3601C37.643 34.4437 37.009 33.5601 36.3457 32.7011C34.3652 35.7269 31.1484 37.7004 27.8203 38.9437C27.2789 39.15 26.6191 38.7879 26.5101 38.2195C26.3801 37.7191 26.7129 37.1812 27.2015 37.0371C30.2918 35.8547 33.3293 33.9867 35.0027 31.0406C34.5305 30.5004 34.057 29.9613 33.5637 29.441C32.0871 31.398 30.0984 32.9672 27.8426 33.9293C27.348 34.1332 26.7351 33.8414 26.564 33.3398C26.3754 32.8734 26.6156 32.3074 27.0656 32.0953C29.0051 31.0968 30.9644 29.8757 32.1351 27.9773C31.7156 27.5425 31.2621 27.1429 30.8285 26.7222C30.4781 26.3765 30.4605 25.7672 30.7851 25.398Z" fill="#ce1d49"/>
<path d="M37.0723 25.1355C37.4953 24.9058 38.0226 25.0594 38.3344 25.4027C41.0777 27.9562 43.3828 31.0172 44.9332 34.4367C45.7113 36.191 46.2797 38.0508 46.4941 39.9609C46.5375 40.5199 46.023 41.0285 45.4687 40.998C44.9789 40.991 44.5465 40.5832 44.5055 40.0969C44.0906 36.9152 42.6726 33.9492 40.8492 31.3406C39.6844 29.6812 38.3519 28.1379 36.8601 26.7633C36.3445 26.332 36.464 25.4203 37.0723 25.1355Z" fill="#ce1d49"/>
</g>
<defs>
<clipPath id="clip0_241_1513">
<rect width="60" height="60" fill="white"/>
</clipPath>
</defs>
</svg>
